<svg width="30" height="30" viewBox="0 0 30 30" fill="none" xmlns="http://www.w3.org/2000/svg">
<g clip-path="url(#clip0_131_8119)">
<path d="M25.3232 16.5257C24.668 17.3153 23.6422 17.8058 22.646 17.8058H20.0107C20.6038 18.7509 21.0502 19.7019 21.3222 20.6075C21.7372 21.9895 21.7227 23.1942 21.2801 24.0914C20.7816 25.1019 19.7714 25.6584 18.4356 25.6584C18.1318 25.6584 17.858 25.4752 17.7422 25.1943C16.7022 22.6716 13.9893 19.0458 11.4334 16.6573C11.1726 17.5633 10.3367 18.2282 9.348 18.2282H6.13706C4.94039 18.2282 3.9668 17.2546 3.9668 16.0579V6.51203C3.9668 5.31535 4.94039 4.34176 6.13706 4.34176H9.348C10.08 4.34176 10.7281 4.70649 11.1214 5.26337C11.7164 4.69098 12.5051 4.34176 13.3693 4.34176H21.4544C22.3482 4.34176 23.1441 4.72234 23.7562 5.44234C24.2608 6.03592 24.6191 6.83781 24.7925 7.76129L25.9842 14.1094C26.1441 14.9612 25.9093 15.8192 25.3232 16.5257ZM10.0182 6.51198C10.0182 6.14242 9.71756 5.84171 9.348 5.84171H6.13706C5.7675 5.84171 5.4668 6.14242 5.4668 6.51198V16.0579C5.4668 16.4274 5.7675 16.7281 6.13706 16.7281H9.348C9.71756 16.7281 10.0182 16.4274 10.0182 16.0579V6.51198ZM24.5099 14.3862L23.3182 8.03799C23.1189 6.97623 22.5246 5.84171 21.4543 5.84171H13.3693C12.3486 5.84171 11.5183 6.76487 11.5183 7.89962V14.7312C14.3453 17.0782 17.5114 21.1089 18.9091 24.1216C19.6549 23.9954 19.8597 23.5802 19.935 23.4278C20.4217 22.441 20.0177 20.1689 17.9804 17.5122C17.8066 17.2856 17.7766 16.98 17.903 16.724C18.0293 16.4679 18.29 16.3058 18.5756 16.3058H22.6461C23.1992 16.3058 23.7969 16.0162 24.1688 15.5679C24.3782 15.3154 24.6075 14.9056 24.5099 14.3862Z" fill="#330066"/>
</g>
<defs>
<clipPath id="clip0_131_8119">
<rect width="30" height="30" fill="white"/>
</clipPath>
</defs>
</svg>
