<svg width="30" height="30" viewBox="0 0 30 30" fill="none" xmlns="http://www.w3.org/2000/svg">
<g clip-path="url(#clip0_131_8111)">
<path d="M25.3232 13.4743C24.668 12.6847 23.6422 12.1942 22.646 12.1942H20.0107C20.6038 11.2491 21.0502 10.2981 21.3222 9.39247C21.7372 8.01051 21.7227 6.80582 21.2801 5.90863C20.7816 4.8981 19.7714 4.34155 18.4356 4.34155C18.1318 4.34155 17.858 4.52483 17.7422 4.80571C16.7022 7.32838 13.9893 10.9542 11.4334 13.3427C11.1726 12.4367 10.3367 11.7718 9.348 11.7718H6.13706C4.94039 11.7718 3.9668 12.7454 3.9668 13.9421V23.488C3.9668 24.6846 4.94039 25.6582 6.13706 25.6582H9.348C10.08 25.6582 10.7281 25.2935 11.1214 24.7366C11.7164 25.309 12.5051 25.6582 13.3693 25.6582H21.4544C22.3482 25.6582 23.1441 25.2777 23.7562 24.5577C24.2608 23.9641 24.6191 23.1622 24.7925 22.2387L25.9842 15.8906C26.1441 15.0388 25.9093 14.1808 25.3232 13.4743ZM10.0182 23.488C10.0182 23.8576 9.71756 24.1583 9.348 24.1583H6.13706C5.7675 24.1583 5.4668 23.8576 5.4668 23.488V13.9421C5.4668 13.5726 5.7675 13.2719 6.13706 13.2719H9.348C9.71756 13.2719 10.0182 13.5726 10.0182 13.9421V23.488ZM24.5099 15.6138L23.3182 21.962C23.1189 23.0238 22.5246 24.1583 21.4543 24.1583H13.3693C12.3486 24.1583 11.5183 23.2351 11.5183 22.1004V15.2688C14.3453 12.9218 17.5114 8.8911 18.9091 5.87844C19.6549 6.00463 19.8597 6.4198 19.935 6.57224C20.4217 7.55901 20.0177 9.83108 17.9804 12.4878C17.8066 12.7144 17.7766 13.02 17.903 13.276C18.0293 13.5321 18.29 13.6942 18.5756 13.6942H22.6461C23.1992 13.6942 23.7969 13.9838 24.1688 14.4321C24.3782 14.6846 24.6075 15.0944 24.5099 15.6138Z" fill="#330066"/>
</g>
<defs>
<clipPath id="clip0_131_8111">
<rect width="30" height="30" fill="white"/>
</clipPath>
</defs>
</svg>
