<svg width="30" height="30" viewBox="0 0 30 30" fill="none" xmlns="http://www.w3.org/2000/svg">
<g clip-path="url(#clip0_131_8064)">
<g clip-path="url(#clip1_131_8064)">
<path d="M15.9866 18.3893C15.5272 18.3893 15.1549 18.7616 15.1549 19.221V22.1576L9.50377 17.6842C9.24479 17.4799 8.92465 17.3685 8.59476 17.368H5.88917V12.6275H8.59461C9.05395 12.6275 9.4263 12.2551 9.4263 11.7958C9.4263 11.3365 9.05395 10.9641 8.59461 10.9641H5.69046C4.88188 10.965 4.22665 11.6203 4.22571 12.4289V17.5667C4.22665 18.3753 4.88188 19.0305 5.69046 19.0315H8.52549L14.7656 23.971C15.3142 24.4051 16.1108 24.3123 16.5449 23.7637C16.722 23.54 16.8184 23.263 16.8183 22.9777V19.221C16.8183 18.7617 16.446 18.3893 15.9866 18.3893L15.9866 18.3893Z" fill="#330066"/>
<path d="M26.7518 25.5756L23.1993 22.0231C26.8432 17.7335 26.5846 11.3652 22.6047 7.38515C22.2785 7.06182 21.7519 7.06416 21.4285 7.39039C21.1072 7.71461 21.1072 8.23717 21.4286 8.56135C24.7786 11.9114 24.9775 17.255 22.0179 20.8415L20.0655 18.8891C21.9938 16.3412 21.7474 12.7614 19.4882 10.5017C19.1619 10.1784 18.6353 10.1808 18.312 10.507C17.9907 10.8312 17.9907 11.3538 18.312 11.678C19.9415 13.3075 20.1296 15.8542 18.8728 17.6963L16.8184 15.6419V7.01767C16.8185 6.31814 16.2515 5.75097 15.5519 5.75088C15.2665 5.75083 14.9895 5.84719 14.7657 6.02434L10.5431 9.36683L4.41979 3.24359C4.095 2.9188 3.56837 2.9188 3.24359 3.24359C2.9188 3.56837 2.9188 4.095 3.24359 4.41979L15.3982 16.5745L15.3985 16.5747L25.5756 26.7518C25.8979 27.0791 26.4245 27.0833 26.7518 26.761C27.0791 26.4388 27.0832 25.9122 26.761 25.5849C26.7579 25.5817 26.7549 25.5787 26.7518 25.5756ZM15.1548 7.83787V13.9786L11.7272 10.551L15.1548 7.83787Z" fill="#330066"/>
</g>
</g>
<defs>
<clipPath id="clip0_131_8064">
<rect width="30" height="30" fill="white"/>
</clipPath>
<clipPath id="clip1_131_8064">
<rect width="24" height="24" fill="white" transform="translate(3 3)"/>
</clipPath>
</defs>
</svg>
