<svg width="30" height="30" viewBox="0 0 30 30" fill="none" xmlns="http://www.w3.org/2000/svg">
<g clip-path="url(#clip0_131_8079)">
<path d="M26.246 11.8877C25.357 11.1417 24.0268 11.2584 23.2822 12.1458L21.2808 14.5141V7.64668C21.2808 7.0711 21.0415 6.51371 20.6242 6.11738L17.9534 3.58028C17.5597 3.20626 17.0438 3.00024 16.5007 3.00024H5.10933C3.94627 3.00024 3 3.94651 3 5.10957V24.8904C3 26.0535 3.94627 26.9997 5.10933 26.9997H19.1715C20.3346 26.9997 21.2809 26.0535 21.2809 24.8904V21.0485C21.3673 20.9461 26.4898 14.8785 26.5059 14.8594C27.2553 13.9663 27.1392 12.6371 26.246 11.8877ZM17.0622 4.67321C19.8753 7.34546 19.6755 7.15013 19.7283 7.21895H17.0622V4.67321ZM19.8746 24.8904C19.8746 25.2781 19.5592 25.5935 19.1715 25.5935H5.10933C4.72163 25.5935 4.4062 25.2781 4.4062 24.8904V5.10957C4.4062 4.72187 4.72163 4.40645 5.10933 4.40645H15.656V7.92198C15.656 8.31029 15.9708 8.6251 16.3591 8.6251H19.8746V16.178C19.5726 16.5354 17.1475 19.405 16.8854 19.7152C16.676 19.9648 16.5253 20.2642 16.4497 20.581L15.7962 23.3164C15.7344 23.5755 15.8242 23.8472 16.0282 24.0184C16.2323 24.1898 16.5156 24.2307 16.7597 24.1249L19.3402 23.0064C19.5339 22.9224 19.7146 22.8083 19.8746 22.6712V24.8904ZM18.2023 20.3356L19.2794 21.2394L19.0398 21.5231C18.9701 21.6062 18.8805 21.673 18.7809 21.7162L17.4907 22.2755L17.8175 20.9078C17.8427 20.8022 17.8929 20.7024 17.9611 20.6211L18.2023 20.3356ZM20.1864 20.1649L19.1099 19.2616C19.2191 19.1323 22.752 14.9517 22.9963 14.6627L24.0706 15.5641L20.1864 20.1649ZM25.4301 13.9539L24.9778 14.4896L23.904 13.5886L24.3578 13.0516C24.6058 12.7561 25.0474 12.7176 25.3421 12.9649C25.6426 13.217 25.6758 13.6611 25.4301 13.9539Z" fill="#330066"/>
<path d="M13.5466 7.21899H6.5155C6.12719 7.21899 5.81238 7.53381 5.81238 7.92212C5.81238 8.31043 6.12719 8.62524 6.5155 8.62524H13.5466C13.9349 8.62524 14.2497 8.31043 14.2497 7.92212C14.2497 7.53381 13.9349 7.21899 13.5466 7.21899Z" fill="#330066"/>
<path d="M17.7653 11.4844H6.5155C6.12719 11.4844 5.81238 11.7992 5.81238 12.1875C5.81238 12.5758 6.12719 12.8906 6.5155 12.8906H17.7653C18.1536 12.8906 18.4684 12.5758 18.4684 12.1875C18.4684 11.7992 18.1536 11.4844 17.7653 11.4844Z" fill="#330066"/>
<path d="M17.7653 15.7031H6.5155C6.12719 15.7031 5.81238 16.0179 5.81238 16.4062C5.81238 16.7946 6.12719 17.1094 6.5155 17.1094H17.7653C18.1536 17.1094 18.4684 16.7946 18.4684 16.4062C18.4684 16.0179 18.1536 15.7031 17.7653 15.7031Z" fill="#330066"/>
<path d="M13.5466 19.9219H6.5155C6.12719 19.9219 5.81238 20.2367 5.81238 20.625C5.81238 21.0133 6.12719 21.3281 6.5155 21.3281H13.5466C13.9349 21.3281 14.2497 21.0133 14.2497 20.625C14.2497 20.2367 13.9349 19.9219 13.5466 19.9219Z" fill="#330066"/>
</g>
<defs>
<clipPath id="clip0_131_8079">
<rect width="24" height="24" fill="white" transform="translate(3 3)"/>
</clipPath>
</defs>
</svg>
