<svg width="30" height="30" viewBox="0 0 30 30" fill="none" xmlns="http://www.w3.org/2000/svg">
<g clip-path="url(#clip0_131_8100)">
<path d="M23.88 13.9399C23.6773 13.9399 23.5006 14.0079 23.3743 14.1342C23.2481 14.2605 23.18 14.4372 23.18 14.6399V19.3199C23.18 21.5437 21.3658 23.2999 19.2 23.2999H10.32C8.09527 23.2999 6.34004 21.5447 6.34004 19.3199V10.4399C6.34004 8.21609 8.15431 6.45991 10.32 6.45991H14.82C15.0228 6.45991 15.1995 6.3919 15.3258 6.26562C15.452 6.13934 15.52 5.96264 15.52 5.75991C15.52 5.55719 15.452 5.38048 15.3258 5.2542C15.1995 5.12792 15.0228 5.05991 14.82 5.05991H10.32C7.32407 5.05991 4.94004 7.50542 4.94004 10.4399V19.3199C4.94004 22.3159 7.38555 24.6999 10.32 24.6999H19.2C22.1953 24.6999 24.58 22.3151 24.58 19.3199V14.6399C24.58 14.2913 24.3017 13.9399 23.88 13.9399Z" fill="#330066" stroke="#330066" stroke-width="0.2"/>
<path d="M19.6312 6.1474L21.9688 7.4521C17.5568 8.31528 13.9261 11.4199 12.3267 15.684C12.1844 16.0414 12.3985 16.4552 12.7428 16.5929L12.7607 16.6001H12.7799H12.9599C13.2477 16.6001 13.5173 16.3888 13.6494 16.1248L13.6498 16.125L13.6532 16.116C15.1156 12.3138 18.4757 9.48982 22.4883 8.77386L21.1536 11.1096C20.9436 11.4608 21.0864 11.8745 21.4191 12.0801C21.471 12.1262 21.5373 12.1436 21.5933 12.1516C21.6529 12.1601 21.7189 12.1601 21.7761 12.1601H21.7799C22.0587 12.1601 22.2678 12.0186 22.4031 11.8156L22.4034 11.8157L22.4073 11.8086L24.5065 8.03006C24.7181 7.67568 24.5706 7.25785 24.2314 7.05433L24.2314 7.05428L24.2284 7.0526L20.3298 4.89341C19.9755 4.68194 19.5577 4.82945 19.3542 5.16863C19.1413 5.52333 19.2888 5.94203 19.6285 6.14583L19.6284 6.14587L19.6312 6.1474Z" fill="#330066" stroke="#330066" stroke-width="0.2"/>
</g>
<defs>
<clipPath id="clip0_131_8100">
<rect width="30" height="30" fill="white"/>
</clipPath>
</defs>
</svg>
